<svg width="25" height="24" viewBox="0 0 25 24" fill="none" xmlns="http://www.w3.org/2000/svg">
<g id="Iconly/Light-Outline/Graph">
<g id="Graph">
<path id="Fill 1" fill-rule="evenodd" clip-rule="evenodd" d="M9.48249 6.3035C9.45049 6.3035 9.41849 6.3075 9.38649 6.3155C6.41649 7.0465 4.00049 10.2645 4.00049 13.4885C4.00049 17.5445 7.30049 20.8445 11.3575 20.8445C15.0145 20.8445 18.0705 18.2395 18.6245 14.6495C18.6285 14.6195 18.6425 14.5325 18.5605 14.4355C18.4825 14.3445 18.3585 14.2905 18.2285 14.2905C16.8175 14.2905 15.7405 14.3225 14.8995 14.3465C12.8635 14.4075 12.0215 14.4305 11.1895 13.8135C9.93549 12.8845 9.82949 11.2885 9.82949 6.5945C9.82949 6.5105 9.79349 6.4405 9.72149 6.3845C9.65449 6.3315 9.56949 6.3035 9.48249 6.3035ZM11.3575 22.3445C6.47349 22.3445 2.50049 18.3715 2.50049 13.4885C2.50049 9.6165 5.42849 5.7445 9.02749 4.8585C9.58949 4.7215 10.1935 4.8495 10.6475 5.2035C11.0805 5.5435 11.3295 6.0505 11.3295 6.5945C11.3295 10.9795 11.4775 12.1595 12.0825 12.6085C12.4795 12.9015 13.0235 12.8985 14.8565 12.8475C15.7085 12.8225 16.7995 12.7905 18.2285 12.7905C18.7985 12.7905 19.3355 13.0345 19.6995 13.4595C20.0375 13.8545 20.1855 14.3705 20.1075 14.8785C19.4395 19.2035 15.7595 22.3445 11.3575 22.3445Z" fill="#686D78"/>
<g id="Group 5">
<mask id="mask0_1937_5763" style="mask-type:alpha" maskUnits="userSpaceOnUse" x="12" y="1" width="12" height="11">
<path id="Clip 4" fill-rule="evenodd" clip-rule="evenodd" d="M12.9741 1.00049H23.3931V11.2898H12.9741V1.00049Z" fill="white"/>
</mask>
<g mask="url(#mask0_1937_5763)">
<path id="Fill 3" fill-rule="evenodd" clip-rule="evenodd" d="M14.5109 2.5018C14.4009 5.0208 14.5639 8.2748 14.6399 9.5638C14.6439 9.6408 14.6999 9.6968 14.7759 9.7008C15.8039 9.7598 19.3459 9.9238 21.8929 9.5488C21.8989 8.1448 20.9379 6.2408 19.4909 4.7948C18.0069 3.3128 16.2509 2.5018 14.5329 2.5018H14.5109ZM17.8149 11.2898C16.5049 11.2898 15.3519 11.2368 14.6889 11.1988C13.8549 11.1498 13.1909 10.4848 13.1429 9.6508C13.0649 8.3288 12.8959 4.9698 13.0159 2.3718C13.0489 1.6168 13.6589 1.0158 14.4049 1.0028C16.5419 0.940803 18.7469 1.9328 20.5509 3.7338C22.3089 5.4908 23.4249 7.7998 23.3929 9.6168C23.3809 10.3258 22.8659 10.9178 22.1699 11.0228C20.8119 11.2278 19.2219 11.2898 17.8149 11.2898Z" fill="#686D78"/>
</g>
</g>
</g>
</g>
</svg>
