<svg width="25" height="24" viewBox="0 0 25 24" fill="none" xmlns="http://www.w3.org/2000/svg">
<g id="Iconly/Light/Setting">
<g id="Setting">
<path id="Path_33946" fill-rule="evenodd" clip-rule="evenodd" d="M21.3064 7.62355L20.684 6.54346C20.1574 5.62954 18.9905 5.31426 18.0753 5.83866V5.83866C17.6397 6.09528 17.1198 6.16809 16.6305 6.04103C16.1411 5.91396 15.7224 5.59746 15.4666 5.16131C15.3021 4.88409 15.2137 4.56833 15.2103 4.24598V4.24598C15.2251 3.72916 15.0302 3.22834 14.6698 2.85761C14.3094 2.48688 13.8143 2.2778 13.2973 2.27802H12.0433C11.5367 2.27801 11.0511 2.47985 10.6938 2.83888C10.3364 3.19791 10.1369 3.68453 10.1394 4.19106V4.19106C10.1244 5.23686 9.27224 6.07675 8.22632 6.07664C7.90397 6.07329 7.58821 5.98488 7.31099 5.82035V5.82035C6.39582 5.29595 5.22887 5.61123 4.70229 6.52516L4.0341 7.62355C3.50817 8.53633 3.81916 9.70255 4.72975 10.2322V10.2322C5.32166 10.574 5.68629 11.2055 5.68629 11.889C5.68629 12.5725 5.32166 13.204 4.72975 13.5457V13.5457C3.82031 14.0719 3.50898 15.2353 4.0341 16.1453V16.1453L4.66568 17.2345C4.9124 17.6797 5.32636 18.0082 5.81595 18.1474C6.30554 18.2865 6.8304 18.2248 7.27438 17.976V17.976C7.71084 17.7213 8.23094 17.6515 8.7191 17.7821C9.20725 17.9128 9.62299 18.233 9.87392 18.6716C10.0385 18.9488 10.1269 19.2646 10.1302 19.5869V19.5869C10.1302 20.6435 10.9867 21.5 12.0433 21.5H13.2973C14.3502 21.5 15.2053 20.6491 15.2103 19.5961V19.5961C15.2079 19.088 15.4086 18.6 15.7679 18.2407C16.1272 17.8814 16.6152 17.6806 17.1233 17.6831C17.4449 17.6917 17.7594 17.7797 18.0387 17.9393V17.9393C18.9515 18.4653 20.1177 18.1543 20.6474 17.2437V17.2437L21.3064 16.1453C21.5615 15.7074 21.6315 15.1859 21.501 14.6963C21.3704 14.2067 21.05 13.7893 20.6108 13.5366V13.5366C20.1715 13.2839 19.8511 12.8665 19.7206 12.3769C19.59 11.8872 19.66 11.3658 19.9151 10.9279C20.081 10.6383 20.3211 10.3981 20.6108 10.2322V10.2322C21.5159 9.70283 21.8262 8.54343 21.3064 7.63271V7.63271V7.62355Z" stroke="#686D78" stroke-width="1.5" stroke-linecap="round" stroke-linejoin="round"/>
<circle id="Ellipse_737" cx="12.6747" cy="11.889" r="2.63616" stroke="#686D78" stroke-width="1.5" stroke-linecap="round" stroke-linejoin="round"/>
</g>
</g>
</svg>
